<?xml version="1.0" encoding="UTF-8"?>
<svg width="512" height="512" viewBox="0 0 512 512" fill="none" xmlns="http://www.w3.org/2000/svg">
  <!-- Definitions for gradients and effects -->
  <defs>
    <linearGradient id="bgGradient" x1="0%" y1="0%" x2="100%" y2="100%">
      <stop offset="0%" stop-color="#6366F1" />
      <stop offset="100%" stop-color="#4338CA" />
    </linearGradient>
    <linearGradient id="circleGradient" x1="0%" y1="0%" x2="100%" y2="100%">
      <stop offset="0%" stop-color="#FFFFFF" stop-opacity="0.95" />
      <stop offset="100%" stop-color="#F3F4F6" stop-opacity="0.95" />
    </linearGradient>
    <filter id="glow" x="-20%" y="-20%" width="140%" height="140%">
      <feGaussianBlur stdDeviation="8" result="blur" />
      <feFlood flood-color="#FFFFFF" flood-opacity="0.3" result="glow" />
      <feComposite in="glow" in2="blur" operator="in" result="softGlow" />
      <feComposite in="SourceGraphic" in2="softGlow" operator="over" />
    </filter>
    <filter id="shadow" x="-10%" y="-10%" width="120%" height="120%">
      <feDropShadow dx="0" dy="4" stdDeviation="8" flood-color="#2D3748" flood-opacity="0.3" />
    </filter>
  </defs>

  <!-- Background with gradient -->
  <rect width="512" height="512" rx="128" fill="url(#bgGradient)" filter="url(#shadow)" />

  <!-- Decorative elements -->
  <circle cx="400" cy="120" r="80" fill="#4338CA" opacity="0.2" />
  <circle cx="120" cy="400" r="60" fill="#6366F1" opacity="0.2" />

  <!-- Main logo container -->
  <g transform="translate(256, 256)">
    <!-- Outer circle with subtle gradient -->
    <circle cx="0" cy="0" r="180" fill="url(#circleGradient)" />

    <!-- 360° arc with glow effect -->
    <path d="M0,-140 A140,140 0 1,1 -0.01,-140" stroke="#4338CA" stroke-width="16" fill="none" stroke-linecap="round" filter="url(#glow)" />

    <!-- Modern eye symbol -->
    <ellipse cx="0" cy="0" rx="90" ry="54" fill="#F3F4F6" stroke="#4338CA" stroke-width="8" />
    <circle cx="0" cy="0" r="36" fill="#4338CA" />
    <circle cx="-14" cy="-14" r="14" fill="white" />

    <!-- Small decorative dots at cardinal points -->
    <circle cx="-120" cy="0" r="12" fill="#4338CA" />
    <circle cx="120" cy="0" r="12" fill="#4338CA" />
    <circle cx="0" cy="-120" r="12" fill="#4338CA" />
    <circle cx="0" cy="120" r="12" fill="#4338CA" />

    <!-- 360° text with modern styling -->
    <text x="0" y="220" font-family="'Segoe UI', Arial, sans-serif" font-size="72" font-weight="bold" fill="#4338CA" text-anchor="middle" filter="url(#shadow)">360°</text>
  </g>
</svg>
